<?xml version="1.0" standalone="no"?><!DOCTYPE svg PUBLIC "-//W3C//DTD SVG 1.1//EN" "http://www.w3.org/Graphics/SVG/1.1/DTD/svg11.dtd"><svg t="1561090952439" class="icon" viewBox="0 0 1024 1024" version="1.1" xmlns="http://www.w3.org/2000/svg" p-id="10124" xmlns:xlink="http://www.w3.org/1999/xlink" width="200" height="200"><defs><style type="text/css"></style></defs><path d="M506.7 852.6c-111.6-87.1-174.4-224.2-168-366.9 5.8-130.4 68.7-243.7 172.7-310.9l4.5 6.9C414.2 247.4 352.6 358.4 347 486c-6.2 140 55.4 274.6 164.9 360l-5.2 6.6z" fill="#0063B2" p-id="10125"></path><path d="M180.2 509.3h666.1v8.3H180.2zM846.3 735.2c-213.4-165.6-456.5-166.7-634.4-2.7l-5.6-6.1c90-82.9 198.6-125.9 314-124 112.4 1.7 226.9 45.4 331.1 126.3l-5.1 6.5z" fill="#0063B2" p-id="10126"></path><path d="M514.2 852.3l-5.1-6.5c111.6-87.1 174.5-223.1 168.3-363.7-5.5-124.5-65.9-232.8-165.6-297.3l4.5-6.9c102 65.9 163.7 176.7 169.4 303.9C692 625 627.9 763.6 514.2 852.3z" fill="#0063B2" p-id="10127"></path><path d="M843.6 560.4H959c-18.1 106.5-68.7 176.5-135.7 227.5-57.3 43.6-132.1 71-219.8 81.1-161.5 15-306.3-6-421.3-91.2C111 708.5 70.3 625.6 64.7 539.9 59 454.2 75.8 376.8 141 297c36.1-44.2 77.4-85.4 164.6-113.6 130.4-43.8 267.2-45.7 411.9 0C847 228.7 931.1 319.5 960.4 465.1H843.6c-22.2-111-77.3-178.4-148.9-227.4-85.9-58.9-189.6-69.7-305.9-27.5-95.9 37.8-150 107.5-185.1 191.8-30 91-30.9 185.4 32.2 287.1 65 100.1 160.4 158 300.5 154.3 165.6-14.3 284.3-122.9 307.2-283z" fill="#0062B1" p-id="10128"></path><path d="M512.3 572.9H360.6l0.7-24.7c65.4-3.7 135.9-6.8 133.8-94.2-0.8-33.1-1.7-65.1-3.7-104.7-1.7-32.1-12.5-46.3-50.1-51.6l0.7-51.6c5.2-24.4 56.5-21.7 70.3-21.7m0 348.5H664l-0.7-24.7c-65.4-3.7-135.9-6.8-133.8-94.2 0.8-33.1 1.7-65.1 3.7-104.7 1.7-32.1 12.5-46.3 50.1-51.6l-0.7-51.6c-3-14.3-22.2-22.5-66.5-21.8-1.2 0-2.4 0-3.7 0.1l-0.1 348.5z" fill="#0062B1" p-id="10129"></path><path d="M510.4 429.4c-112.9 0-218.9-42.8-307.1-124.1l5.6-6.1c177.9 163.9 421 162.9 634.4-2.7l5.1 6.5c-104.3 81-218.8 124.6-331.2 126.4h-6.8z" fill="#0063B2" p-id="10130"></path></svg>