<?xml version="1.0" standalone="no"?><!DOCTYPE svg PUBLIC "-//W3C//DTD SVG 1.1//EN" "http://www.w3.org/Graphics/SVG/1.1/DTD/svg11.dtd"><svg t="1561091799372" class="icon" viewBox="0 0 2567 1024" version="1.1" xmlns="http://www.w3.org/2000/svg" p-id="10358" xmlns:xlink="http://www.w3.org/1999/xlink" width="501.3671875" height="200"><defs><style type="text/css"></style></defs><path d="M987.372308 230.006154h720.344615l-20.086154 164.627692H1232.738462l11.027692 51.593846h437.563077l-16.935385 140.603077-406.449231-1.969231 8.664616 51.593847 391.876923-0.787693-20.873846 172.504616H1064.566154zM1755.766154 236.307692h716.8l-51.2 205.981539h-242.609231l9.846154-51.987693h-220.16l-27.569231 239.458462h202.043077l24.024615-125.636923h239.064616l-76.012308 305.624615h-638.030769zM1013.76 807.778462l-1.575385-12.603077-200.861538-203.618462h176.836923L938.929231 232.369231l-733.341539-1.575385 154.387693 578.166154 252.455384-1.575385-57.501538-216.221538 213.464615 214.646154 245.366154 1.969231z m-500.184615-377.698462l-14.572308-46.473846h196.923077l9.846154 46.473846h-192.196923z" fill="#1afa29" p-id="10359"></path></svg>